<svg xmlns="http://www.w3.org/2000/svg" width="615" height="337" viewBox="0 0 615 337">
  <defs>
    <style>
      .cls-1 {
        fill: #fff;
        fill-rule: evenodd;
      }
    </style>
  </defs>
  <path id="_Compound_Path_" data-name="&lt;Compound Path&gt;" class="cls-1" d="M108.771,919.243a128.172,128.172,0,0,0,18.855,40.769c8.937,13.084,20.689,25.219,34.269,36.169,27.343,21.819,62.45,38.409,100.577,48.869,38.182,10.61,77.128,15.37,114.521,17.69,37.465,2.29,73.957,1.51,107.98-3.08,34.024-4.47,65.469-12.88,92.513-24.29,27.083-11.37,49.843-25.6,67.307-41.026a165.733,165.733,0,0,0,37.6-47.183,144.731,144.731,0,0,0,7.374-16.882c0.785-1.361,1.577-2.72,2.3-4.115,2.273-3.812,3.637-7.936,5.444-11.944l2-6.214A43.082,43.082,0,0,0,701.2,901.7c2.208-8.459,2.737-17.233,2.785-26.039a118.15,118.15,0,0,0-3.792-26.536,121.592,121.592,0,0,0-10.509-25.916c-9.18-16.8-23.24-32.415-41.038-44.722-17.667-12.471-38.077-21.677-58.94-28.464-20.894-6.848-42.352-11.365-63.525-14.649a752.721,752.721,0,0,0-123.226-8.281c-34.656.62-67.692,4.215-97.894,10.619l-0.11,0c-7.634-.122-18.964.829-32.871,4.039-6.962,1.57-14.572,3.635-22.824,6s-17.234,4.906-26.771,7.938c-19,5.983-40.557,14.4-59.83,28.573-19.278,13.949-36.776,32.93-47.365,56.317A115.186,115.186,0,0,0,107.37,865c-5.294,7.577-9.349,13.789-12.333,18.377l-6.049,9.449,6.393-9.294c2.847-4.086,6.636-9.5,11.43-16.013A118.263,118.263,0,0,0,108.771,919.243ZM403.254,733.281a761.759,761.759,0,0,1,121.435,8.982c20.745,3.316,41.638,7.809,61.78,14.47,20.125,6.6,39.574,15.44,56.282,27.238,33.9,23.3,51.831,58.311,52.534,91.675,0,8.34-.41,16.66-2.438,24.669a39.641,39.641,0,0,1-1.545,5.973l-1.833,5.887c-1.682,3.788-2.91,7.706-5.028,11.308-7.451,14.782-18.865,27.769-31.863,38.891-26.3,22.258-58.723,37.134-90.179,47.806a456.289,456.289,0,0,1-91.959,20.37,480.35,480.35,0,0,1-138.884-4.47q-6.063-1.14-11.441-2.15c-3.577-.7-6.86-1.56-9.944-2.24-6.161-1.4-11.371-2.61-15.485-3.83-8.3-2.3-12.653-3.5-12.653-3.5s4.315,1.31,12.531,3.79c4.08,1.33,9.254,2.65,15.381,4.19,3.068,0.75,6.337,1.68,9.9,2.45q5.362,1.125,11.411,2.4a475.039,475.039,0,0,0,139.869,6.99,457.9,457.9,0,0,0,93.737-19.36c32.187-10.46,65.629-25.234,93.307-48.116A152.04,152.04,0,0,0,681.84,942.22c-0.679,1.321-1.353,2.639-2.091,3.978a167.17,167.17,0,0,1-38.3,45.609c-17.525,14.793-40.136,28.343-66.871,39.083-26.711,10.78-57.56,18.62-90.961,22.66-33.393,4.15-69.22,4.65-106.121,2.19-36.886-2.48-75.1-7.3-112.212-17.62-37.083-10.18-70.9-26.08-97.348-46.893-13.114-10.442-24.464-21.972-33.132-34.387a124.192,124.192,0,0,1-18.535-38.79,113.954,113.954,0,0,1,.6-63.749,332.09,332.09,0,0,1,32.453-35.977,256.223,256.223,0,0,1,58.727-41.74c24.372-12.794,53.6-23.78,86.651-31.282C327.7,737.7,364.44,733.633,403.254,733.281ZM165.765,786.987c18.39-14.142,39.159-22.8,57.859-29.151,9.364-3.209,18.242-5.942,26.4-8.49s15.636-4.775,22.487-6.5a143.587,143.587,0,0,1,30.989-4.782c-3.586.775-7.155,1.566-10.657,2.42-33.459,8.05-62.931,19.647-87.363,33.03a253.408,253.408,0,0,0-58.387,43.3,315.128,315.128,0,0,0-28.969,33.409c0.921-2.67,1.913-5.308,3.028-7.88C130.862,819.64,147.356,800.916,165.765,786.987Z" transform="translate(-89 -727)"/>
</svg>
